<svg xmlns="http://www.w3.org/2000/svg" width="152" height="27" fill="none" viewBox="0 0 152 27"><path fill="#353A3F" d="m54.12 7-5.26 14h-3.39L40.21 7h2.97l4.01 11.17L51.22 7h2.9Zm4.2 4.05c2.79 0 4.7 2.07 4.71 5.09 0 .3-.02.66-.05.88h-6.87c.28 1.4 1.26 2.01 2.49 2.01.84 0 1.75-.34 2.45-.93l1.53 1.68c-1.1 1.01-2.5 1.47-4.13 1.47-2.97 0-5.03-2.02-5.03-5.07 0-3.05 2-5.13 4.9-5.13Zm-.02 2.25c-1.23 0-1.95.74-2.18 1.94h4.29c-.24-1.24-.99-1.94-2.11-1.94Zm11.812-2.25c.56 0 1 .08 1.36.21l-.39 2.59c-.43-.19-1.05-.31-1.58-.31-1.21 0-2.04.74-2.04 2.18V21h-2.61v-9.69h2.53v1.06c.61-.91 1.54-1.32 2.73-1.32Zm10.064.26v2.32h-3.51v3.54c0 1.21.64 1.65 1.45 1.65.62 0 1.29-.31 1.82-.63l.96 2.04c-.85.58-1.83 1.02-3.21 1.02-2.4 0-3.63-1.36-3.63-3.87v-3.75h-1.87v-2.32h1.87V8.43h2.61v2.88h3.51Zm6.189-.26c2.79 0 4.7 2.07 4.71 5.09 0 .3-.02.66-.05.88h-6.87c.28 1.4 1.26 2.01 2.49 2.01.84 0 1.75-.34 2.45-.93l1.53 1.68c-1.1 1.01-2.5 1.47-4.13 1.47-2.97 0-5.03-2.02-5.03-5.07 0-3.05 2-5.13 4.9-5.13Zm-.02 2.25c-1.23 0-1.95.74-2.18 1.94h4.29c-.24-1.24-.99-1.94-2.11-1.94Zm15.246-1.99-3.47 4.76 3.53 4.93h-3.1l-2.18-3.08-2.14 3.08h-3.02l3.56-4.92-3.47-4.77h3.1l2.09 3.01 2.08-3.01h3.02Zm16.448 7.08V21h-10.19V7h2.79v11.39h7.4Zm10.979-7.08V21h-2.55v-1.07c-.63.78-1.57 1.32-2.9 1.32-2.67 0-4.69-2.19-4.69-5.1 0-2.91 2.02-5.1 4.69-5.1 1.33 0 2.26.54 2.9 1.33v-1.07h2.55Zm-4.97 2.17c-1.53 0-2.5 1.19-2.5 2.67s.97 2.67 2.5 2.67c1.49 0 2.5-1.14 2.5-2.67s-1.01-2.67-2.5-2.67Zm12.855-2.43c2.68 0 4.7 2.19 4.7 5.1 0 2.91-2.02 5.1-4.69 5.1-1.34 0-2.27-.54-2.9-1.32V21h-2.55V6.6h2.6v5.72c.63-.76 1.54-1.27 2.84-1.27Zm-.48 2.43c-1.48 0-2.49 1.14-2.49 2.67s1.01 2.67 2.49 2.67c1.54 0 2.5-1.19 2.5-2.67s-.96-2.67-2.5-2.67Zm14.757-1.5-.88 2.03c-.77-.38-2-.78-3.09-.79-.99 0-1.49.35-1.49.88 0 .56.7.7 1.58.83l.86.13c2.1.32 3.27 1.26 3.27 2.9 0 2-1.64 3.29-4.45 3.29-1.32 0-3.05-.25-4.31-1.14l1.03-1.98c.83.55 1.84.95 3.3.95 1.21 0 1.79-.34 1.79-.91 0-.47-.49-.73-1.61-.89l-.79-.11c-2.24-.31-3.35-1.29-3.35-2.94 0-1.99 1.54-3.17 4.09-3.17 1.55 0 2.76.29 4.05.92Z"/><path fill="url(#a)" d="M22.784 10.125a6.75 6.75 0 0 1-6.69-5.858L15.524 0h6.75l.974 2.27a4.05 4.05 0 0 0 3.723 2.455h4.079l-3.11 5.4h-5.156ZM0 4.725h4.08A4.05 4.05 0 0 0 7.801 2.27L8.775 0h6.75l-.569 4.267a6.75 6.75 0 0 1-6.691 5.858H3.11L0 4.725ZM15.793 20.57a10.8 10.8 0 0 1 10.171-10.333l1.977-.113L18.225 27h-2.7l.268-6.429ZM12.825 27 3.11 10.125l1.976.113a10.8 10.8 0 0 1 10.171 10.333L15.525 27h-2.7Z"/><defs><radialGradient id="a" cx="0" cy="0" r="1" gradientTransform="matrix(0 -16.9425 15.525 0 15.525 16.942)" gradientUnits="userSpaceOnUse"><stop stop-color="#9AE789"/><stop offset=".484" stop-color="#68CEDF"/><stop offset="1" stop-color="#5E79EA"/></radialGradient></defs></svg>