<svg xmlns="http://www.w3.org/2000/svg" width="200" height="56" fill="none" viewBox="0 0 200 56"><path fill="#353A3F" d="M4.871 34.97C3.51 36.584.376 40.246 1.608 42.543c.962 1.795 3.602 1.204 5.187.867 3.626-.768 8.376-2.254 11.229-4.68 7.284-6.191 14.452-12.559 21.228-19.307 5.255-5.234 9.46-11.101 13.853-17.045-.3-.177-.602-.352-.902-.528l-26.55 45.356c-.431.736-.647 1.778.312 2.283 2.71 1.426 7.324-8.975 7.913-10.061 2.007-3.698 4.024-7.396 5.813-11.207.753-1.604 2.276-4.167 1.846-6.022-.94-4.063-9.629 4.657-10.293 5.306-3.186 3.117-6.225 8.876-1.294 11.85 3.372 2.032 7.958.497 10.785-1.721 8.958-7.03 17.903-14.374 25.685-22.706 2.751-2.946 5.313-6.197 6.446-10.134.71-2.468-1.771-.544-2.381.217-6.024 7.521-10.189 16.48-15.417 24.569-3.877 5.995-7.899 12.022-11.1 18.415-.354.706-1.78 2.995-.766 3.705 1.13.789 3.323-1.976 3.885-2.547C58.488 37.59 68.18 24.023 78.41 11.444c-.273-.21-.547-.421-.82-.634-7.177 9.536-13.987 19.67-19.154 30.442-.745 1.554-5.68 12.14-3.518 12.734 1.865.514 5.6-8.285 6.336-9.566 1.385-2.41 8.525-18.59 2.618-18.936-1.67-.098-3.108 1.084-4.346 2.057-2.769 2.177-5.5 5.086-7.06 8.278-1.558 3.189.462 5.293 3.538 5.915 2.915.59 6.041.201 8.937-.327 5.226-.952 11.828-1.917 16.084-5.324.526-.421-.22-1.156-.74-.74-4.058 3.25-10.626 4.127-15.622 5.056-2.881.536-5.93.823-8.826.237-7.9-1.597 3.17-11.66 5.971-13.46 5.218-3.353 2.027 8.531 1.42 10.446-1.328 4.189-3.765 7.88-5.92 11.68a48.3 48.3 0 0 1-1.814 2.99c-.447.67-.114 1.068.103-.033.15-.761.389-1.51.605-2.253 1.077-3.721 2.608-7.24 4.353-10.692 4.976-9.844 11.31-19.17 17.938-27.977.357-.473-.448-1.092-.82-.634L60.255 32.116c-2.246 2.762-4.472 5.542-6.767 8.263-2.078 2.463-4.189 4.902-6.394 7.254-.933.995-2.14 2.612-3.457 3.135.365-.145.201.25.483-.563.201-.58.48-1.135.75-1.686.806-1.648 1.73-3.24 2.651-4.825 2.204-3.787 4.545-7.495 6.904-11.188 5.223-8.176 9.87-16.75 15.343-24.752a33.328 33.328 0 0 1 1.927-2.583c.174-.207.36-.399.555-.585.331-.32-.307-.442-.392-.071-.439 1.884-1.513 3.772-2.595 5.355-3.598 5.268-8.787 9.649-13.508 13.866-4.429 3.956-9.001 7.754-13.633 11.469-3.504 2.808-8.783 6.232-12.854 2.324-3.905-3.747 3.224-9.896 5.706-11.99 1.478-1.247 3.128-2.68 4.992-3.333 1.277-.448-.795 4.637-.833 4.722-1.628 3.755-3.658 7.35-5.603 10.946-1.866 3.45-3.662 7.636-6.593 10.352-.728.674-.553-.202-.602-.119l1.71-2.92L35.4 32.623 53.105 2.378c.349-.596-.511-1.057-.902-.528-3.504 4.74-6.842 9.623-10.873 13.936C35.27 22.27 28.565 28.185 21.89 34.02c-5.026 4.393-10.7 8.549-17.763 8.695-3.949.082.412-5.737 1.484-7.006.432-.512-.303-1.255-.739-.74Zm73.913-.373c-7.544-9.14-13.977 10.776-15.06 14.79-.147.545.486.821.873.51 2.764-2.22 5.405-4.6 7.955-7.059 3.254-3.138 7.335-6.963 8.605-11.465.164-.577-.65-.908-.954-.403-2.99 4.972-5.915 10.014-8.494 15.213-.55 1.109-2.61 4.296-1.837 5.63.884 1.525 3.37-1.49 3.863-1.997 4.369-4.504 7.823-9.71 11.775-14.554.836-1.025 1.694-2.037 2.621-2.98.962-.978.756-1.29.333-.06-2.055 5.963-5.895 11.612-9.007 17.041-.289.504.424 1.094.82.634 4.176-4.841 8.44-9.778 13.251-14 .52-.455 2.263-2.14 2.024-1.133-.558 2.354-2.152 4.651-3.343 6.714-.649 1.124-7.089 8.716-4.03 10.136 2.01.931 4.871-4.609 5.985-6.153a112.31 112.31 0 0 1 3.767-4.96 36.366 36.366 0 0 1 1.748-2.01c.546-.584 1.11-1.576.936-.638-.745 4.026-4.159 7.477-4.523 11.54-.37 4.142 6.039-2.294 6.376-2.627 1.145-1.13 2.216-2.339 3.33-3.5.699-.73 1.41-1.446 2.133-2.15.301-.294.612-.576.926-.857.642-.575.233-1.086-.065-.515-1.471 2.807-3.675 4.59-4.119 7.8-.267 1.93.922 3.015 2.789 2.158 4.561-2.096 8.434-6.387 11.665-10.136 3.776-4.382 7.475-8.878 10.718-13.674 1.706-2.523 3.494-5.391 2.798-8.569-.51-2.328-2.897.302-3.464 1.042-3.2 4.18-6.31 9.11-8.326 13.965-.956 2.304-6.54 14.278-2.238 15.42 1.18.313 2.561-.695 3.446-1.304 3.037-2.093 5.575-5.003 8.041-7.708 4.621-5.071 8.452-10.806 13.269-15.721l-.822-.634c-5.115 7.549-10.436 15.188-14.569 23.328-.465.918-2.237 5.355.577 3.645 2.061-1.254 3.757-3.376 5.382-5.111a297.202 297.202 0 0 1 6.817-7.042l-.821-.634a191.028 191.028 0 0 0-3.497 6.913c-1.267 2.627-3.195 5.831-3.446 8.801-.205 2.413 2.15.77 2.991-.019 2.204-2.07 4.055-4.573 5.914-6.944.81-1.033 1.535-2.286 2.508-3.158 1.599-1.431-1.024 3.761-.769 3.411-2.71 3.717 1.533 3.238 3.983 2.217.376-.157.72-.42 1.086-.605 1.786-.902 3.565 2.05 2.506 3.097a1.29 1.29 0 0 0-.248.342c-1.07 2.127 3.503 2.123 4.407 2.134 4.391.057 8.815-.617 13.147-1.24 10.148-1.455 20.216-3.5 30.248-5.596.659-.138.379-1.145-.279-1.008-13.749 2.874-28.059 6.44-42.181 6.792-1.132.029-3.42.296-4.383-.525-.069-.059-.078-.059.034-.166 1-.961.294-3.817-.568-4.763-.889-.978-2.586-.286-3.526.189-8.354 4.218.344-3.17-2.075-5.588-.586-.585-1.444.002-1.932.411-2.421 2.026-4.153 5.22-6.209 7.65-.5.591-3.663 3.42-3.626 3.736-.146-1.26.782-2.925 1.238-4.044 1.608-3.939 3.578-7.758 5.58-11.51.276-.518-.391-1.062-.822-.634-3.66 3.661-7.045 7.682-10.9 11.133-1.311 1.172-1.57 1.639-.8-.163.742-1.738 1.721-3.386 2.667-5.019 3.864-6.671 8.143-13.123 12.467-19.504.339-.5-.412-1.051-.821-.634-4.215 4.301-7.942 9.112-11.62 13.874-.757.978-11.834 13.021-12.718 9.855-.799-2.863 1.191-7.083 2.14-9.722 1.426-3.96 3.364-7.398 5.512-11.05 1.444-2.458 2.915-5.062 4.855-7.172 1.288-1.4.937.721.876 1.655-.147 2.237-1.929 4.456-3.135 6.242-2.007 2.966-4.257 5.77-6.52 8.541-3.451 4.227-6.969 8.11-11.157 11.647-.369.312-4.997 4.216-5.191 2.225-.098-1.002.327-2.105.665-3.032.574-1.575 4.107-4.202 3.684-6.238-.038-.181-.199-.311-.365-.365-1.644-.534-5.402 4.625-6.38 5.674-1.74 1.866-3.535 3.89-5.74 5.21-.832.498.76-3.27.916-3.6.335-.712 4.961-9.366 2.57-9.642-2.033-.235-4.787 4.571-5.795 5.894a149.102 149.102 0 0 0-3.45 4.75c-.14.202-3.377 5.114-3.212 2.7.095-1.375 1.82-3.192 2.542-4.367a155.565 155.565 0 0 0 2.82-4.776c.996-1.756 2.059-3.59 2.632-5.539.542-1.841-.929-1.958-2.163-1.15-2.871 1.88-5.266 4.726-7.6 7.203a247.322 247.322 0 0 0-7.258 8.062l.82.634c3.082-5.374 6.375-10.771 8.796-16.489.257-.607 1.346-3.158-.33-2.84-1.534.29-3.162 2.979-4.053 4.06-1.823 2.214-3.554 4.505-5.266 6.806a86.166 86.166 0 0 1-6.51 7.748 23.25 23.25 0 0 1-1.617 1.558c-.571.499-.632.859-.51.271.275-1.315.964-2.577 1.54-3.777 2.575-5.367 5.63-10.534 8.697-15.632l-.955-.403c-1.296 4.591-5.62 8.383-8.94 11.585a108.306 108.306 0 0 1-7.353 6.478l.873.509c.912-3.378 6.644-22.41 13.313-14.33.432.524 1.167-.22.742-.735Z"/></svg>